<?xml version="1.0" encoding="UTF-8"?>
<svg width="73px" height="177px" viewBox="0 0 73 177" version="1.1" xmlns="http://www.w3.org/2000/svg" xmlns:xlink="http://www.w3.org/1999/xlink">
    <title>AA5947CD-7595-450C-A33F-B47ACA69BC2D</title>
    <defs>
        <filter color-interpolation-filters="auto" id="filter-1">
            <feColorMatrix in="SourceGraphic" type="matrix" values="0 0 0 0 0.105882 0 0 0 0 0.243137 0 0 0 0 0.435294 0 0 0 1.000000 0"></feColorMatrix>
        </filter>
    </defs>
    <g id="ECG-feedback" stroke="none" stroke-width="1" fill="none" fill-rule="evenodd">
        <g id="SSC---ESG" transform="translate(-477.000000, -3126.000000)">
            <g id="block-1" transform="translate(270.000000, 2699.000000)" filter="url(#filter-1)">
                <g transform="translate(0.000000, 261.500000)">
                    <g id="icon-woman-blue" transform="translate(207.750000, 166.000000)" fill="#2D8886" fill-rule="nonzero">
                        <path d="M1.93654078,100 C1.33113993,100 0.760572857,99.7111686 0.394399517,99.2193282 C0.028226176,98.7274877 -0.0914129342,98.0892453 0.071036293,97.4942725 C2.86283799,87.2540459 7.63956228,67.0205434 10.237713,55.8748305 C11.5373499,50.2573407 16.4348896,46.2757145 22.0923808,46.2371638 L50.0265353,46 L50.1233608,46 C55.791012,45.9781339 60.7319895,49.9289778 62.0651715,55.5488554 C64.905386,67.4189574 69.9693592,88.6501411 71.9510543,97.4613457 C72.1055671,98.1495165 71.8884735,98.8695084 71.3815506,99.3501073 C70.8746277,99.8307063 70.1548892,99.9988979 69.4934535,99.7913261 C68.8320179,99.5837543 68.3293729,99.0319541 68.1748601,98.3437833 C66.19962,89.55892 61.1388743,68.3474924 58.3018874,56.4839758 C57.3835913,52.6423346 54.0057743,49.9421416 50.1298158,49.9513039 L50.0652655,49.9513039 L22.1214284,50.1686206 C18.2519879,50.192661 14.9003448,52.912876 14.0074522,56.7539754 C11.3996189,67.9293224 6.60998454,88.2155077 3.80204526,98.5215879 C3.58094449,99.3890603 2.81511315,99.9959816 1.93654078,100 Z" id="Path"></path>
                        <path d="M45.0261789,176 L28.9738211,176 C23.8558904,175.992764 19.7093019,171.849336 19.7038721,166.737117 L19.7038721,122.959982 L13.0956241,122.933723 C9.72826108,122.926486 7.00180359,120.198668 7,116.835057 C7.00108345,116.680445 7.01870918,116.526392 7.05257681,116.375523 L11.8239224,96.5105447 C12.0779994,95.4527702 13.1424235,94.8010147 14.2013801,95.0548081 C15.2603368,95.3086014 15.9128206,96.3718373 15.6587436,97.4296118 L10.953119,117.032 C11.0517063,118.144889 11.9837127,118.998986 13.1021962,119.001429 L21.6820746,119.034253 C22.770976,119.034253 23.653705,119.915997 23.653705,121.003682 L23.653705,166.737117 C23.655507,169.672906 26.0347594,172.053906 28.9738211,172.061141 L45.0261789,172.061141 C47.9683411,172.057524 50.352532,169.675995 50.3561531,166.737117 L50.3561531,120.997118 C50.3561531,119.909432 51.2388821,119.027688 52.3277836,119.027688 L60.9010899,118.994864 C62.0141475,118.995554 62.9470332,118.154483 63.0600252,117.048412 L58.0225094,97.7939562 C57.796558,96.759728 58.4294896,95.7320845 59.4555405,95.467251 C60.4815914,95.2024175 61.5336898,95.7951389 61.8376143,96.8092415 L66.937565,116.349264 C66.9781312,116.511391 66.9990924,116.677792 67,116.844904 C66.9963778,120.211605 64.264981,122.939952 60.8945178,122.94357 L54.2961279,122.969829 L54.2961279,166.737117 C54.2906981,171.849336 50.1441096,175.992764 45.0261789,176 Z" id="Path"></path>
                        <path d="M36.5002701,37 C29.0175228,37 22.271638,32.4923223 19.4084281,25.5790352 C16.5452182,18.665748 18.1285915,10.7084212 23.4201727,5.41779955 C28.7117539,0.127177878 36.6693675,-1.45475223 43.5821351,1.40971159 C50.4949026,4.27417541 55.0013564,11.0208778 55,18.5036252 C54.9870564,28.7148346 46.7114813,36.9889091 36.5002701,37 Z M36.5002701,4.02995197 C28.5066813,4.02995197 22.0265972,10.5100362 22.0265972,18.5036252 C22.0265972,26.4972143 28.5066813,32.9772985 36.5002701,32.9772985 C44.4938589,32.9772985 50.973943,26.4972143 50.973943,18.5036252 C50.9646988,10.5138684 44.4900267,4.03919617 36.5002701,4.02995197 Z" id="Shape"></path>
                        <path d="M36,176 C34.8954305,176 34,175.115382 34,174.024149 L34,120.975851 C34,119.884618 34.8954305,119 36,119 C37.1045695,119 38,119.884618 38,120.975851 L38,174.024149 C38,175.115382 37.1045695,176 36,176 L36,176 Z" id="Path"></path>
                    </g>
                </g>
            </g>
        </g>
    </g>
</svg>