<?xml version="1.0" encoding="UTF-8"?>
<svg width="59px" height="177px" viewBox="0 0 59 177" version="1.1" xmlns="http://www.w3.org/2000/svg" xmlns:xlink="http://www.w3.org/1999/xlink">
    <title>631837FB-B572-4849-B512-7D7001A017E5</title>
    <defs>
        <filter color-interpolation-filters="auto" id="filter-1">
            <feColorMatrix in="SourceGraphic" type="matrix" values="0 0 0 0 0.105882 0 0 0 0 0.243137 0 0 0 0 0.435294 0 0 0 1.000000 0"></feColorMatrix>
        </filter>
        <filter color-interpolation-filters="auto" id="filter-2">
            <feColorMatrix in="SourceGraphic" type="matrix" values="0 0 0 0 0.839216 0 0 0 0 0.647059 0 0 0 0 0.294118 0 0 0 1.000000 0"></feColorMatrix>
        </filter>
    </defs>
    <g id="ECG-feedback" stroke="none" stroke-width="1" fill="none" fill-rule="evenodd">
        <g id="SSC---ESG" transform="translate(-325.000000, -3121.000000)">
            <g id="block-1" transform="translate(270.000000, 2699.000000)" filter="url(#filter-1)">
                <g transform="translate(0.000000, 261.500000)" filter="url(#filter-2)" id="icon-blue-male">
                    <g transform="translate(55.250000, 161.000000)">
                        <path d="M29.503596,37 C22.0205487,37.0013447 15.2736449,32.4945234 12.4093852,25.5813465 C9.54512555,18.6681696 11.1276725,10.7102996 16.4189861,5.41898606 C21.7102996,0.127672489 29.6681696,-1.45487445 36.5813465,1.40938524 C43.4945234,4.27364493 48.0013447,11.0205487 48,18.503596 C47.9871716,28.7135594 39.7135594,36.9871716 29.503596,37 Z M29.503596,3.99517781 C23.6351863,3.99383284 18.34387,7.52784226 16.0971945,12.9491598 C13.8505191,18.3704774 15.0909766,24.611352 19.2400933,28.7614201 C23.38921,32.9114882 29.6298,34.1533766 35.0516326,31.9079442 C40.4734651,29.6625118 44.0086878,24.3720059 44.0086878,18.503596 C43.9995269,10.4959139 37.5112758,4.00617504 29.503596,3.99517781 Z" id="Shape" fill="#1B3E6F" fill-rule="nonzero"></path>
                        <path d="M38.6631494,176 L20.333542,176 C15.1797464,175.99455 11.0036471,171.834714 11,166.702807 L11,100.976724 C11,99.8850096 11.8887846,99 12.985156,99 C14.0815274,99 14.9703121,99.8850096 14.9703121,100.976724 L14.9703121,166.702807 C14.9721347,169.652037 17.3717331,172.042918 20.333542,172.046551 L38.6631494,172.046551 C41.6254953,172.042921 44.026042,169.65257 44.0296879,166.702807 L44.0296879,100.976724 C44.0296879,99.8850096 44.9184726,99 46.014844,99 C47.1112154,99 48,99.8850096 48,100.976724 L48,166.702807 C47.9945293,171.835247 43.8174819,175.994553 38.6631494,176 Z" id="Path" fill="#1B3E6F" fill-rule="nonzero"></path>
                        <path d="M1.91846523,109 C0.858926139,109 0,108.127872 0,107.052048 L0,57.7656274 C0.0070487052,51.2706177 5.19083583,46.007157 11.58753,46 L30.0815348,46 C31.1410739,46 32,46.8721276 32,47.9479516 C32,49.0237755 31.1410739,49.8959031 30.0815348,49.8959031 L11.58753,49.8959031 C7.30845352,49.8994835 3.84045668,53.4207826 3.83693046,57.7656274 L3.83693046,107.052048 C3.83693046,108.127872 2.97800432,109 1.91846523,109 Z" id="Path" fill="#1B3E6F" fill-rule="nonzero"></path>
                        <path d="M56.0815348,109 C55.0219957,109 54.1630695,108.127827 54.1630695,107.051948 L54.1630695,57.7662338 C54.1577844,53.421906 50.6908168,49.9014706 46.41247,49.8961039 L27.9184652,49.8961039 C26.8589261,49.8961039 26,49.0239313 26,47.9480519 C26,46.8721726 26.8589261,46 27.9184652,46 L46.41247,46 C52.8091642,46.0071574 57.9929513,51.2708893 58,57.7662338 L58,107.051948 C58,108.127827 57.1410739,109 56.0815348,109 Z" id="Path" fill="#1B3E6F" fill-rule="nonzero"></path>
                        <path d="M29,176 C27.8954305,176 27,175.120987 27,174.03667 L27,114.96333 C27,113.879013 27.8954305,113 29,113 C30.1045695,113 31,113.879013 31,114.96333 L31,174.03667 C31,175.120987 30.1045695,176 29,176 Z" id="Path" fill="#1B3E6F" fill-rule="nonzero"></path>
                    </g>
                </g>
            </g>
        </g>
    </g>
</svg>